# xmcd
#
# Track frame offsets:
#	150
#	12014
#	25911
#	37651
#	51834
#	64783
#	77842
#	89291
#	99969
#	111166
#	124791
#	135374
#	147164
#	159199
#	168919
#	183440
#
# Disc length: 2590 seconds
#
# Revision: 1
# Processed by: cddbd v1.4b41PL1 Copyright (c) Steve Scherf et al.
# Submitted via: audiograbber 1.80
#
DISCID=bb0a1c10
DTITLE=Tennessee Ernie Ford - Best of
DYEAR=1900
DGENRE=
TTITLE0=Sixteen Tons
TTITLE1=Mule Train
TTITLE2=Shot-Gun Boogie
TTITLE3=Mister and Mississippi
TTITLE4=Hicktown
TTITLE5=Ballad of Dave Corcket
TTITLE6=River of No Return
TTITLE7=Hey Mr Cotton Picker
TTITLE8=Blackberry Boogie
TTITLE9=Strange Little Girl
TTITLE10=Tailor Made Woman
TTITLE11=Ill Never Be Free
TTITLE12=Aint Nobodys Business But My Own
TTITLE13=Anticipation Blues
TTITLE14=Cry of the Wild Goose
TTITLE15=Tennessee Border
EXTD=
EXTT0=
EXTT1=
EXTT2=
EXTT3=
EXTT4=
EXTT5=
EXTT6=
EXTT7=
EXTT8=
EXTT9=
EXTT10=
EXTT11=
EXTT12=
EXTT13=
EXTT14=
EXTT15=
PLAYORDER=
